<svg width="52" height="11" viewBox="0 0 52 11" fill="none" xmlns="http://www.w3.org/2000/svg">
<path d="M5.56104 0.601562L4.2915 3.19922L1.42041 3.60938C0.912598 3.6875 0.717285 4.3125 1.08838 4.68359L3.13916 6.69531L2.65088 9.52734C2.57275 10.0352 3.11963 10.4258 3.56885 10.1914L6.12744 8.84375L8.6665 10.1914C9.11572 10.4258 9.6626 10.0352 9.58447 9.52734L9.09619 6.69531L11.147 4.68359C11.5181 4.3125 11.3228 3.6875 10.8149 3.60938L7.96338 3.19922L6.67432 0.601562C6.45947 0.152344 5.79541 0.132812 5.56104 0.601562ZM16.811 0.601562L15.5415 3.19922L12.6704 3.60938C12.1626 3.6875 11.9673 4.3125 12.3384 4.68359L14.3892 6.69531L13.9009 9.52734C13.8228 10.0352 14.3696 10.4258 14.8188 10.1914L17.3774 8.84375L19.9165 10.1914C20.3657 10.4258 20.9126 10.0352 20.8345 9.52734L20.3462 6.69531L22.397 4.68359C22.7681 4.3125 22.5728 3.6875 22.0649 3.60938L19.2134 3.19922L17.9243 0.601562C17.7095 0.152344 17.0454 0.132812 16.811 0.601562ZM28.061 0.601562L26.7915 3.19922L23.9204 3.60938C23.4126 3.6875 23.2173 4.3125 23.5884 4.68359L25.6392 6.69531L25.1509 9.52734C25.0728 10.0352 25.6196 10.4258 26.0688 10.1914L28.6274 8.84375L31.1665 10.1914C31.6157 10.4258 32.1626 10.0352 32.0845 9.52734L31.5962 6.69531L33.647 4.68359C34.0181 4.3125 33.8228 3.6875 33.3149 3.60938L30.4634 3.19922L29.1743 0.601562C28.9595 0.152344 28.2954 0.132812 28.061 0.601562ZM39.311 0.601562L38.0415 3.19922L35.1704 3.60938C34.6626 3.6875 34.4673 4.3125 34.8384 4.68359L36.8892 6.69531L36.4009 9.52734C36.3228 10.0352 36.8696 10.4258 37.3188 10.1914L39.8774 8.84375L42.4165 10.1914C42.8657 10.4258 43.4126 10.0352 43.3345 9.52734L42.8462 6.69531L44.897 4.68359C45.2681 4.3125 45.0728 3.6875 44.5649 3.60938L41.7134 3.19922L40.4243 0.601562C40.2095 0.152344 39.5454 0.132812 39.311 0.601562ZM51.1274 0.25C50.8931 0.25 50.6782 0.367188 50.561 0.601562L49.2915 3.19922L46.4204 3.60938C45.9126 3.6875 45.7173 4.3125 46.0884 4.66406L48.1392 6.67578L47.6509 9.52734C47.5728 10.0352 48.1001 10.4258 48.5688 10.1914L51.1274 8.84375V0.25Z" fill="#FFCD40"/>
</svg>
