<svg width="70" height="70" viewBox="0 0 70 70" fill="none" xmlns="http://www.w3.org/2000/svg">
<path d="M35 13.5483C19.4363 13.5483 6.77423 26.2104 6.77423 41.7741C6.77423 57.3379 19.4363 69.9999 35 69.9999C50.5637 69.9999 63.2258 57.3379 63.2258 41.7741C63.2258 26.2104 50.5637 13.5483 35 13.5483ZM35 67.7419C20.6811 67.7419 9.0323 56.0931 9.0323 41.7741C9.0323 27.4552 20.6811 15.8064 35 15.8064C49.319 15.8064 60.9678 27.4552 60.9678 41.7741C60.9678 56.0931 49.319 67.7419 35 67.7419Z" fill="#96CEBC"/>
<path d="M52.9842 54.9035L50.7261 49.2583C50.5545 48.8297 50.1393 48.5486 49.6776 48.5484H48.5485V36.1291C48.542 30.5765 44.8565 25.7006 39.5163 24.1797V23.1452C39.5139 20.9638 37.7461 19.196 35.5647 19.1936H34.4356C32.2542 19.196 30.4864 20.9638 30.484 23.1452V24.1797C25.1438 25.7006 21.4582 30.5765 21.4518 36.1291V48.5484H20.3227C19.8609 48.5486 19.4457 48.8297 19.2741 49.2583L17.0161 54.9035C16.7853 55.4837 17.0686 56.1409 17.6488 56.3717C17.7811 56.4243 17.9223 56.4514 18.0647 56.4517H30.5249C30.808 58.3945 32.4724 59.8359 34.4356 59.8388H35.5647C37.5279 59.8359 39.1922 58.3945 39.4753 56.4517H51.9356C52.56 56.4507 53.0652 55.9437 53.0642 55.3194C53.0639 55.177 53.0368 55.0359 52.9842 54.9035ZM32.7421 23.1452C32.7429 22.2102 33.5006 21.4525 34.4356 21.4517H35.5647C36.4996 21.4525 37.2574 22.2102 37.2582 23.1452V23.7619C36.8856 23.7281 36.5102 23.7097 36.1292 23.7097H33.8711C33.4901 23.7097 33.1147 23.7281 32.7421 23.7619V23.1452ZM23.7098 36.1291C23.7162 31.3032 27.1105 27.145 31.8374 26.1724H31.8417C32.5095 26.0361 33.1895 25.9675 33.8711 25.9678H36.1292C36.8108 25.9675 37.4908 26.0361 38.1586 26.1724H38.1628C42.8898 27.145 46.2841 31.3032 46.2905 36.1291V48.5484H23.7098V36.1291ZM35.5647 57.5807H34.4356C33.7183 57.5799 33.0791 57.1278 32.8395 56.4517H37.1608C36.9212 57.1278 36.282 57.5799 35.5647 57.5807ZM19.7328 54.1936L21.0876 50.8065H48.9126L50.2675 54.1936H19.7328Z" fill="#96CEBC"/>
<path d="M31.6129 2.25806H35.6614L30.8145 7.10486C30.3736 7.54575 30.3736 8.26056 30.8145 8.70159C31.0262 8.91329 31.3134 9.03226 31.6129 9.03226H38.3871C39.0106 9.03226 39.5161 8.52673 39.5161 7.90323C39.5161 7.27972 39.0106 6.77419 38.3871 6.77419H34.3385L39.1854 1.9274C39.6263 1.48651 39.6263 0.771694 39.1854 0.330665C38.9737 0.118972 38.6865 0 38.3871 0H31.6129C30.9894 0 30.4838 0.505524 30.4838 1.12903C30.4838 1.75254 30.9894 2.25806 31.6129 2.25806Z" fill="#96CEBC"/>
<path d="M51.9356 10.1614H55.9841L51.1372 15.0082C50.6963 15.4491 50.6963 16.1639 51.1372 16.6049C51.3489 16.8166 51.6361 16.9356 51.9356 16.9356H58.7097C59.3333 16.9356 59.8388 16.4301 59.8388 15.8065C59.8388 15.183 59.3333 14.6775 58.7097 14.6775H54.6612L59.5081 9.83072C59.949 9.38983 59.949 8.67501 59.5081 8.23399C59.2964 8.02229 59.0092 7.90332 58.7097 7.90332H51.9356C51.312 7.90332 50.8065 8.40884 50.8065 9.03235C50.8065 9.65586 51.312 10.1614 51.9356 10.1614Z" fill="#96CEBC"/>
<path d="M13.5485 7.90321H17.597L12.7501 12.75C12.3092 13.1909 12.3092 13.9057 12.7501 14.3467C12.9618 14.5584 13.249 14.6774 13.5485 14.6774H20.3227C20.9462 14.6774 21.4517 14.1719 21.4517 13.5484C21.4517 12.9249 20.9462 12.4193 20.3227 12.4193H16.2741L21.121 7.57254C21.5619 7.13165 21.5619 6.41683 21.121 5.97581C20.9093 5.76411 20.6221 5.64514 20.3227 5.64514H13.5485C12.925 5.64514 12.4194 6.15067 12.4194 6.77417C12.4194 7.39768 12.925 7.90321 13.5485 7.90321Z" fill="#96CEBC"/>
</svg>
