<svg width="50" height="50" viewBox="0 0 50 50" fill="none" xmlns="http://www.w3.org/2000/svg">
<path d="M44.5714 3.10327H17.7749C16.5744 3.10327 15.5865 4.0866 15.5865 5.28162V7.75766L30.6899 12.4125L46.7598 7.75766V5.28162C46.7598 4.0866 45.7719 3.10327 44.5714 3.10327Z" fill="#0364B8"/>
<path d="M49.3315 27.0044C49.5598 26.2901 49.7421 25.562 49.877 24.8245C49.8773 24.4555 49.6791 24.1136 49.3581 23.9292L49.3379 23.9183L49.3315 23.9154L32.4386 14.3363C32.3658 14.2893 32.2903 14.2462 32.2128 14.2074C31.5587 13.8846 30.7892 13.8846 30.1351 14.2074C30.0575 14.2462 29.982 14.2891 29.909 14.3363L13.0163 23.9154L13.01 23.9183L12.9896 23.9292C12.6688 24.1136 12.4706 24.4555 12.4708 24.8245C12.6057 25.562 12.788 26.2901 13.0163 27.0044L30.9284 40.0447L49.3315 27.0044Z" fill="#0A2767"/>
<path d="M37.4078 7.75757H26.4971L23.3469 12.4124L26.4971 17.0668L37.4078 26.3758H46.7597V17.0668L37.4078 7.75757Z" fill="#28A8EA"/>
<path fill-rule="evenodd" clip-rule="evenodd" d="M15.5867 7.75757H26.4974V17.0666H15.5867V7.75757Z" fill="#0078D4"/>
<path fill-rule="evenodd" clip-rule="evenodd" d="M37.408 7.75757H46.7598V17.0666H37.408V7.75757Z" fill="#50D9FF"/>
<path d="M37.4081 26.3759L26.4974 17.0669H15.5867V26.3759L26.4974 35.6851L43.3808 38.4281L37.4081 26.3759Z" fill="#0364B8"/>
<path fill-rule="evenodd" clip-rule="evenodd" d="M26.4973 17.0669H37.408V26.3759H26.4973V17.0669Z" fill="#0078D4"/>
<path fill-rule="evenodd" clip-rule="evenodd" d="M15.5867 26.376H26.4974V35.685H15.5867V26.376Z" fill="#064A8C"/>
<path fill-rule="evenodd" clip-rule="evenodd" d="M37.408 26.376H46.7598V35.685H37.408V26.376Z" fill="#0078D4"/>
<path d="M31.471 39.1261L13.088 25.7832L13.858 24.4349C13.858 24.4349 30.6058 33.9301 30.8613 34.073C31.0731 34.1576 31.3111 34.1508 31.5177 34.0542C31.756 33.9209 48.5568 24.3884 48.5568 24.3884L49.33 25.7367L31.471 39.1261Z" fill="#0A2767" fill-opacity="0.498039"/>
<path d="M49.3581 25.7195L49.3379 25.732L49.3332 25.7351L32.4405 35.3143C31.7589 35.7517 30.8955 35.8051 30.1648 35.4553L36.0486 43.3075L48.9139 46.0957V46.102C49.5204 45.6653 49.8805 44.9636 49.8803 44.2184V24.8245C49.8805 25.1932 49.6821 25.5354 49.3613 25.7195H49.3581Z" fill="#1490DF"/>
<path d="M49.877 44.2183V43.0734L34.3168 34.2483L32.4385 35.3126C31.7572 35.75 30.8938 35.8037 30.1631 35.4537L36.0469 43.3061L48.9122 46.094V46.1004C49.5187 45.6634 49.8786 44.962 49.8786 44.2168L49.877 44.2183Z" fill="black" fill-opacity="0.047059"/>
<path d="M49.7992 44.8125L32.7426 35.1404L32.4385 35.3126C31.7572 35.75 30.8938 35.8037 30.1631 35.4536L36.0469 43.306L48.9122 46.094V46.1003C49.3487 45.7852 49.6627 45.3296 49.8005 44.8109L49.7992 44.8125Z" fill="black" fill-opacity="0.098039"/>
<path d="M13.0145 25.7399V25.7243H12.9991L12.9522 25.6934C12.6497 25.5081 12.4661 25.1779 12.469 24.8245V44.2215C12.469 45.4965 13.5231 46.5457 14.8041 46.5457H47.5392C47.7338 46.5436 47.9276 46.5177 48.1158 46.468C48.2135 46.4511 48.3081 46.4197 48.3965 46.3751C48.4296 46.3717 48.4614 46.3611 48.4899 46.3439C48.6173 46.292 48.738 46.2243 48.8484 46.1421L48.9107 46.0957L13.0145 25.7399Z" fill="#28A8EA"/>
<path d="M28.0557 38.2714V12.9305C28.0523 11.7971 27.1166 10.8657 25.978 10.8623H15.6348V22.4302L13.0145 23.9166L13.0084 23.9198L12.9882 23.9306C12.6672 24.1152 12.469 24.4571 12.469 24.8257V40.3457V40.3393H25.978C27.1166 40.3362 28.0523 39.4045 28.0557 38.2714Z" fill="black" fill-opacity="0.098039"/>
<path d="M26.4972 39.8226V14.4818C26.4938 13.3486 25.5578 12.4172 24.4194 12.4136H15.6348V22.4301L13.0145 23.9165L13.0084 23.9197L12.9882 23.9305C12.6672 24.1151 12.469 24.457 12.469 24.8256V41.8972V41.8908H24.4194C25.5578 41.8875 26.4938 40.956 26.4972 39.8226ZM26.4972 36.7196V14.4818C26.4938 13.3486 25.5578 12.4172 24.4194 12.4136H15.6348V22.4301L13.0145 23.9165L13.0084 23.9197L12.9882 23.9305C12.6672 24.1151 12.469 24.457 12.469 24.8256V38.7939V38.7878H24.4194C25.5578 38.7845 26.4938 37.853 26.4972 36.7196ZM24.9384 36.7196V14.4818C24.935 13.3486 23.9993 12.4172 22.8609 12.4136H15.6348V22.4301L13.0145 23.9165L13.0084 23.9197L12.9882 23.9305C12.6672 24.1151 12.469 24.457 12.469 24.8256V38.7939V38.7878H22.8609C23.9993 38.7845 24.935 37.853 24.9384 36.7196Z" fill="black" fill-opacity="0.2"/>
<path d="M2.07775 12.4124H22.8593C23.9991 12.4124 24.937 13.3458 24.937 14.4803V35.1668C24.937 36.3013 23.9991 37.235 22.8593 37.235H2.07775C0.937979 37.235 0 36.3013 0 35.1668V14.4803C0 13.3458 0.937979 12.4124 2.07775 12.4124Z" fill="#0078D4"/>
<path d="M6.02728 20.896C6.57936 19.7249 7.47086 18.7447 8.5866 18.0816C9.82295 17.377 11.2307 17.0261 12.6548 17.0669C13.9737 17.038 15.2756 17.3709 16.4174 18.0288C17.4918 18.6657 18.3573 19.6001 18.908 20.7177C19.5079 21.949 19.8072 23.3041 19.7809 24.6724C19.8101 26.1026 19.502 27.5199 18.8817 28.8104C18.3187 29.9675 17.4272 30.9355 16.3176 31.5939C15.1314 32.2725 13.781 32.6144 12.4131 32.5822C11.0657 32.614 9.73498 32.2775 8.56642 31.6092C7.48356 30.9712 6.60771 30.0359 6.04451 28.9158C5.44073 27.7021 5.13805 26.3617 5.16231 25.0076C5.13555 23.5896 5.43189 22.184 6.02887 20.896H6.02728ZM8.75483 27.5023C9.04935 28.2428 9.54883 28.8854 10.1952 29.3548C10.853 29.8134 11.6415 30.0499 12.4442 30.0298C13.2994 30.0635 14.1426 29.8195 14.8461 29.3347C15.4846 28.8653 15.9709 28.2194 16.2444 27.4775C16.5518 26.6506 16.7033 25.7742 16.6917 24.8927C16.7012 24.0035 16.5588 23.1188 16.2709 22.277C16.017 21.5191 15.5481 20.8501 14.921 20.3516C14.236 19.8424 13.3951 19.5838 12.541 19.6192C11.7209 19.598 10.9146 19.8359 10.2388 20.2988C9.58035 20.7698 9.06976 21.4178 8.7673 22.1668C8.09845 23.8818 8.0946 25.7848 8.75642 27.5023H8.75483Z" fill="white"/>
</svg>
