<svg width="63" height="61" viewBox="0 0 63 61" fill="none" xmlns="http://www.w3.org/2000/svg">
<path d="M62.3103 0.179568C61.8838 -0.0637916 61.3594 -0.05969 60.9369 0.190232L35.8826 15.0056C35.2327 15.3899 35.0174 16.2283 35.4017 16.8783C35.7858 17.5281 36.6242 17.7434 37.2743 17.3592L55.2504 6.72949L21.7671 41.4715L5.11367 36.3765L26.8472 23.525C27.4971 23.1405 27.7125 22.3022 27.3281 21.6522C26.944 21.0024 26.1055 20.7868 25.4555 21.1712L1.05407 35.6004C0.587863 35.8761 0.328234 36.401 0.392355 36.939C0.456476 37.477 0.832043 37.9262 1.34993 38.0847L21.2383 44.1692L30.0125 60.1398C30.0216 60.1563 30.0311 60.1703 30.0408 60.1827C30.1872 60.4269 30.4066 60.6263 30.6804 60.7415C30.8517 60.8135 31.0317 60.8487 31.2106 60.8487C31.561 60.8487 31.9059 60.7138 32.1664 60.4591L42.2554 50.599L61.2328 56.4049C61.364 56.4449 61.4987 56.4648 61.6327 56.4648C61.922 56.4648 62.2077 56.3729 62.4459 56.1967C62.7944 55.9388 63 55.531 63 55.0976V1.36711C63 0.87615 62.7367 0.42279 62.3103 0.179568ZM30.087 45.0118C29.9287 45.2406 29.8438 45.5121 29.8438 45.7903V54.1535L23.8523 43.2482L50.365 15.739L30.087 45.0118ZM32.5781 56.2336V47.6385L39.276 49.6876L32.5781 56.2336ZM60.2656 53.2495L33.4005 45.0306L60.2656 6.24851V53.2495Z" fill="white"/>
</svg>
