<svg width="70" height="56" viewBox="0 0 70 56" fill="none" xmlns="http://www.w3.org/2000/svg">
<path d="M45.4287 37.2675C42.7585 37.417 40.078 37.2094 37.4627 36.6513L34.5937 36.0391C34.5231 36.0241 34.4513 36.0164 34.3792 36.0164L25.1178 36.0162C24.9158 36.0162 24.7181 36.0758 24.5496 36.1874L18.4578 40.2259C16.9975 41.194 15.0595 40.8333 14.0453 39.4045C13.1235 38.106 13.2787 36.3533 14.4145 35.2371L20.5865 29.1706L29.2442 24.2747C29.3052 24.2402 29.3627 24.1996 29.4154 24.1534L30.1191 23.5375C30.1719 23.4913 30.2198 23.4397 30.262 23.3838L37.6094 13.6644L40.7006 15.3742C40.8583 15.4615 41.0291 15.5028 41.1973 15.5028C41.5594 15.5028 41.9103 15.3114 42.0979 14.9721C42.3727 14.4753 42.1927 13.8497 41.6958 13.5749L38.8621 12.0074L42.7083 6.91965C43.209 6.25737 43.4219 5.43963 43.3075 4.61737C43.1933 3.79497 42.7656 3.06648 42.1033 2.56569L40.1143 1.06196C39.452 0.561309 38.635 0.348547 37.8119 0.462742C36.9896 0.577075 36.261 1.00479 35.7604 1.66707L31.1629 7.74876L30.2339 7.23495C29.867 7.03206 29.4518 6.92472 29.0326 6.92472H21.7197C20.567 6.92472 19.4477 7.33475 18.568 8.07942L12.5507 13.1716C12.1172 13.5385 12.0632 14.187 12.4299 14.6205C12.6334 14.8608 12.9235 14.9845 13.2153 14.9845C13.4499 14.9845 13.686 14.9046 13.879 14.7411L19.8962 9.64896C20.4053 9.21822 21.0529 8.98106 21.7197 8.98106H29.0326C29.1044 8.98106 29.1757 8.99943 29.2386 9.03439L29.9102 9.40576L23.305 18.1433L14.266 23.192C13.9734 23.3553 13.7789 23.651 13.7446 23.9841L12.7065 34.0535C11.8383 35.039 11.3907 36.2729 11.3868 37.5178L11.2877 37.7604C10.9306 38.6339 10.0901 39.1983 9.14638 39.1983C7.87077 39.1983 6.833 38.1605 6.833 36.8849V23.5106C6.833 21.7268 7.61386 20.0429 8.97557 18.8907L10.526 17.5788C10.9595 17.2119 11.0137 16.5632 10.6468 16.1297C10.2801 15.6965 9.63154 15.6424 9.19779 16.0089L7.64731 17.321C5.82293 18.8649 4.7768 21.121 4.7768 23.5106V36.8849C4.7768 38.3032 5.45649 39.5654 6.50673 40.3642L1.85268 46.5206C1.6465 46.7933 1.49913 47.114 1.4262 47.448L0.0336427 53.8323C-0.0846654 54.375 0.114251 54.9241 0.552937 55.2649C0.810528 55.465 1.1172 55.5673 1.42716 55.5673C1.45814 55.5673 37.6167 55.5663 37.6167 55.5663C38.1846 55.5663 38.6449 55.1061 38.6449 54.5382C38.6449 53.9702 38.1846 53.51 37.6167 53.51H5.8672L7.98085 52.4504C8.30548 52.2876 8.59295 52.0484 8.81188 51.7585L15.6415 42.7244C15.9792 42.7917 16.323 42.8279 16.6687 42.8279C17.6729 42.8279 18.6896 42.5396 19.5942 41.9398L25.4278 38.0725L34.2709 38.0728L37.0336 38.6624C39.8275 39.2586 42.6904 39.4801 45.5437 39.3207C46.1106 39.289 46.5446 38.8037 46.5128 38.2367C46.4812 37.6697 45.9952 37.2368 45.4287 37.2675ZM28.6854 22.0597L28.1404 22.5367L19.4563 27.4473C19.378 27.4915 19.3058 27.546 19.2416 27.609L17.2392 29.5772L30.4505 12.1011L34.1387 14.8459L28.6854 22.0597ZM33.6578 7.85844L37.3459 10.6032L35.3787 13.2056L31.6904 10.4608L33.6578 7.85844ZM37.4008 2.90732C37.5702 2.68304 37.8168 2.53841 38.0951 2.49961C38.1442 2.49276 38.1934 2.48947 38.2421 2.48947C38.4695 2.48947 38.6897 2.56281 38.8742 2.70237L40.8632 4.2061C41.3259 4.55595 41.4179 5.21686 41.068 5.67968L38.586 8.96297L34.8979 6.21816L37.4008 2.90732ZM20.2232 22.2202L15.3258 28.6985L15.7353 24.7269L20.2232 22.2202ZM3.19259 48.9992L5.71668 51.2853L2.3229 52.9867L3.19259 48.9992ZM7.48116 50.1091L4.06023 47.0106L8.45326 41.1994C8.67918 41.2356 8.91045 41.2549 9.14638 41.2549C10.2563 41.2549 11.2884 40.8394 12.0731 40.1286C12.1629 40.2872 12.2605 40.4431 12.3683 40.5947C12.7406 41.1192 13.1897 41.5543 13.6882 41.8983L7.48116 50.1091Z" fill="white"/>
<path d="M68.9719 38.5855H59.5404C59.0281 38.5855 58.5951 37.9888 58.5951 37.2827V18.4398C58.5951 17.7338 59.028 17.1372 59.5404 17.1372H68.9719C69.5399 17.1372 70.0001 16.6769 70.0001 16.109C70.0001 15.541 69.5399 15.0808 68.9719 15.0808H59.5404C58.2081 15.0808 57.0762 16.0576 56.6853 17.4046H48.6203L45.5511 15.707C45.0543 15.4324 44.4286 15.6126 44.1538 16.1093C43.879 16.6062 44.0591 17.2317 44.556 17.5066L47.8574 19.3325C48.0097 19.4167 48.1809 19.461 48.355 19.461H56.5389V35.5079H54.2334C54.1242 35.5079 54.0154 35.5254 53.9117 35.5596L53.1741 35.8025C52.0268 36.1805 50.8394 36.4929 49.6449 36.7312C49.088 36.8424 48.7267 37.3839 48.8377 37.9407C48.9353 38.4296 49.3648 38.7678 49.845 38.7678C49.9117 38.7678 49.9794 38.7613 50.0474 38.7478C51.3231 38.4932 52.5916 38.1593 53.8176 37.7554L54.3985 37.564H56.5502C56.6787 39.2848 57.9702 40.6414 59.5406 40.6414H68.972C69.54 40.6414 70.0002 40.1812 70.0002 39.6132C70.0002 39.0453 69.5399 38.5855 68.9719 38.5855Z" fill="white"/>
</svg>
