<svg width="66" height="70" viewBox="0 0 66 70" fill="none" xmlns="http://www.w3.org/2000/svg">
<path d="M60.1808 4.53004H58.9412V3.29041C58.9412 1.47602 57.4651 0 55.6507 0C53.8364 0 52.3603 1.47602 52.3603 3.29041V4.53004H47.6162V3.29041C47.6163 1.47602 46.1402 0 44.3259 0C42.5117 0 41.0355 1.47602 41.0355 3.29041V4.53004H36.2914V3.29041C36.2914 1.47602 34.8154 0 33.001 0C31.1866 0 29.7106 1.47602 29.7106 3.29041V4.53004H24.9664V3.29041C24.9665 1.47602 23.4904 0 21.6761 0C19.8617 0 18.3857 1.47602 18.3857 3.29041V4.53004H17.146C14.0828 4.53004 11.5908 7.02215 11.5908 10.0852V35.1781L9.08256 32.6699C7.79959 31.3869 5.71217 31.3871 4.4292 32.6699L1.22602 35.8731C-0.0569482 37.1559 -0.0569482 39.2435 1.22602 40.5263L11.5907 50.891V64.4447C11.5907 67.5079 14.0828 70 17.1458 70H52.0277C52.594 70 53.0531 69.5409 53.0531 68.9746C53.0531 68.4083 52.594 67.9492 52.0277 67.9492H17.146C15.2136 67.9492 13.6416 66.3771 13.6416 64.4447V52.9417L22.0066 61.3067C22.0309 61.3311 22.0564 61.354 22.0827 61.3755C22.1006 61.3901 22.1192 61.4031 22.1378 61.4164C22.1466 61.4225 22.1548 61.4295 22.1637 61.4354C22.1872 61.4511 22.2114 61.4651 22.2359 61.4786C22.2405 61.4812 22.2449 61.4842 22.2495 61.4867C22.2754 61.5005 22.3018 61.5125 22.3283 61.5238C22.3323 61.5255 22.3359 61.5277 22.34 61.5293C22.3659 61.54 22.3921 61.549 22.4185 61.5575C22.424 61.5593 22.4292 61.5614 22.4347 61.5631C22.4595 61.5706 22.4847 61.5765 22.5098 61.582C22.5174 61.5836 22.5246 61.5859 22.5321 61.5874C22.5566 61.5922 22.5812 61.5954 22.606 61.5984C22.6146 61.5995 22.6229 61.6012 22.6315 61.6021C22.6648 61.6053 22.6982 61.607 22.7316 61.607H28.7132L30.0145 62.9083C30.2146 63.1084 30.4771 63.2086 30.7395 63.2086C31.0019 63.2086 31.2644 63.1084 31.4645 62.9083C31.865 62.5078 31.865 61.8585 31.4645 61.4581L30.1632 60.1569V54.1756C30.1632 54.142 30.1616 54.1085 30.1583 54.075C30.1576 54.0676 30.156 54.0605 30.1552 54.0531C30.152 54.0271 30.1486 54.0013 30.1435 53.9756C30.1422 53.969 30.1403 53.9626 30.1388 53.9561C30.133 53.9299 30.1269 53.9038 30.1192 53.8781C30.1178 53.8735 30.1159 53.8691 30.1144 53.8645C30.1058 53.8372 30.0964 53.8102 30.0854 53.7835C30.0842 53.7806 30.0827 53.7779 30.0815 53.775C30.0697 53.7473 30.057 53.7198 30.0428 53.693C30.0409 53.6895 30.0387 53.6863 30.0368 53.6828C30.0227 53.6571 30.0079 53.6318 29.9915 53.6071C29.9865 53.5995 29.9804 53.5924 29.9751 53.5849C29.9612 53.565 29.9472 53.5452 29.9318 53.5262C29.9102 53.4998 29.8873 53.4744 29.863 53.4501L21.4979 45.0849H56.7832C57.3495 45.0849 57.8086 44.6258 57.8086 44.0595C57.8086 43.4932 57.3495 43.0341 56.7832 43.0341H20.5436C20.2424 43.0341 19.9722 43.1648 19.7846 43.3717L13.6414 37.2285V17.9056H63.6852V24.8989C63.6852 25.4652 64.1443 25.9243 64.7105 25.9243C65.2768 25.9243 65.7359 25.4652 65.7359 24.8989V10.0852C65.7361 7.02201 63.244 4.53004 60.1808 4.53004ZM28.1126 59.5563H25.2072L28.1126 56.6509V59.5563ZM6.6044 43.0045L8.35754 41.2515L24.4848 57.3787L22.7317 59.1317L6.6044 43.0045ZM25.9348 55.9285L9.80758 39.8013L11.5607 38.0483L27.6879 54.1755L25.9348 55.9285ZM2.6762 37.3233L5.87938 34.1201C6.36268 33.6368 7.14922 33.6366 7.63252 34.1201L10.1107 36.5982L5.15436 41.5543L2.67633 39.0763C2.1929 38.593 2.1929 37.8066 2.6762 37.3233ZM55.6507 2.05078C56.3343 2.05078 56.8904 2.60682 56.8904 3.29041V7.82031C56.8904 8.50391 56.3343 9.05994 55.6507 9.05994C54.9672 9.05994 54.4111 8.50391 54.4111 7.82031V5.5568C54.4111 5.55639 54.4111 5.55598 54.4111 5.55543C54.4111 5.55488 54.4111 5.55461 54.4111 5.55406V3.29041C54.4113 2.60682 54.9673 2.05078 55.6507 2.05078ZM44.3259 2.05078C45.0095 2.05078 45.5655 2.60682 45.5655 3.29041V7.82031C45.5655 8.50391 45.0095 9.05994 44.3259 9.05994C43.6423 9.05994 43.0863 8.50391 43.0863 7.82031V5.5568C43.0863 5.55639 43.0863 5.55598 43.0863 5.55543C43.0863 5.55488 43.0863 5.55461 43.0863 5.55406V3.29041C43.0863 2.60682 43.6423 2.05078 44.3259 2.05078ZM31.7615 3.29041C31.7615 2.60682 32.3175 2.05078 33.0011 2.05078C33.6847 2.05078 34.2407 2.60682 34.2407 3.29041V5.55406V5.55543C34.2407 5.55543 34.2407 5.55625 34.2407 5.5568V7.82031C34.2407 8.50391 33.6847 9.05994 33.0011 9.05994C32.3176 9.05994 31.7615 8.50391 31.7615 7.82031V3.29041ZM21.6761 2.05078C22.3596 2.05078 22.9158 2.60682 22.9158 3.29041V7.82031C22.9158 8.50391 22.3597 9.05994 21.6761 9.05994C20.9925 9.05994 20.4365 8.50391 20.4365 7.82031V3.29041C20.4365 2.60682 20.9925 2.05078 21.6761 2.05078ZM13.6416 15.8549V10.0852C13.6416 8.15281 15.2137 6.58082 17.146 6.58082H18.3857V7.82031C18.3857 9.63471 19.8617 11.1107 21.6761 11.1107C23.4904 11.1107 24.9665 9.63471 24.9665 7.82031V6.58082H29.7107V7.82031C29.7107 9.63471 31.1867 11.1107 33.0011 11.1107C34.8155 11.1107 36.2915 9.63471 36.2915 7.82031V6.58082H41.0356V7.82031C41.0356 9.63471 42.5117 11.1107 44.3261 11.1107C46.1405 11.1107 47.6165 9.63471 47.6165 7.82031V6.58082H52.3606V7.82031C52.3606 9.63471 53.8366 11.1107 55.651 11.1107C57.4654 11.1107 58.9414 9.63471 58.9414 7.82031V6.58082H60.1811C62.1134 6.58082 63.6856 8.15295 63.6856 10.0852V15.8549H13.6416Z" fill="white"/>
<path d="M64.7106 27.9752C64.1444 27.9752 63.6852 28.4343 63.6852 29.0006V64.4447C63.6852 66.3771 62.1131 67.9492 60.1807 67.9492H56.1292C55.5629 67.9492 55.1038 68.4083 55.1038 68.9746C55.1038 69.5409 55.5629 70 56.1292 70H60.1807C63.2439 70 65.736 67.5079 65.736 64.4447V29.0006C65.736 28.4343 65.2769 27.9752 64.7106 27.9752Z" fill="white"/>
<path d="M20.5436 24.7006H56.7832C57.3495 24.7006 57.8086 24.2415 57.8086 23.6752C57.8086 23.1089 57.3495 22.6498 56.7832 22.6498H20.5436C19.9773 22.6498 19.5182 23.1089 19.5182 23.6752C19.5182 24.2415 19.9773 24.7006 20.5436 24.7006Z" fill="white"/>
<path d="M20.5436 31.4955H56.7832C57.3495 31.4955 57.8086 31.0364 57.8086 30.4701C57.8086 29.9038 57.3495 29.4447 56.7832 29.4447H20.5436C19.9773 29.4447 19.5182 29.9038 19.5182 30.4701C19.5182 31.0364 19.9773 31.4955 20.5436 31.4955Z" fill="white"/>
<path d="M20.5436 38.2904H56.7832C57.3495 38.2904 57.8086 37.8313 57.8086 37.265C57.8086 36.6987 57.3495 36.2396 56.7832 36.2396H20.5436C19.9773 36.2396 19.5182 36.6987 19.5182 37.265C19.5182 37.8313 19.9773 38.2904 20.5436 38.2904Z" fill="white"/>
<path d="M57.8087 50.8549C57.8087 50.2886 57.3496 49.8295 56.7833 49.8295H33.0011C32.4348 49.8295 31.9757 50.2886 31.9757 50.8549C31.9757 51.4211 32.4348 51.8802 33.0011 51.8802H56.7833C57.3496 51.8802 57.8087 51.4211 57.8087 50.8549Z" fill="white"/>
</svg>
